<svg xmlns="http://www.w3.org/2000/svg" width="512" height="512" viewBox="0 0 512 512">
  <defs>
    <linearGradient id="theme" x1="0" y1="0" x2="1" y2="1">
      <stop offset="0" stop-color="#12c2e9"/>
      <stop offset="0.5" stop-color="#c471ed"/>
      <stop offset="1" stop-color="#f64f59"/>
    </linearGradient>
    <linearGradient id="bg" x1="0" y1="0" x2="0" y2="1">
      <stop offset="0" stop-color="#15181d"/>
      <stop offset="1" stop-color="#0b0d10"/>
    </linearGradient>
  </defs>
  <rect width="512" height="512" rx="48" fill="url(#bg)"/>
  <rect x="6" y="6" width="500" height="500" rx="44" fill="none" stroke="url(#theme)" stroke-width="4" opacity="0.65"/>
  <!-- folder body -->
  <path d="M96 176 h96 l28 28 h196 a16 16 0 0 1 16 16 v144 a24 24 0 0 1 -24 24 H104 a24 24 0 0 1 -24 -24 V200 a24 24 0 0 1 16 -24 z"
        fill="none" stroke="url(#theme)" stroke-width="14" stroke-linejoin="round"/>
  <!-- daemon eyes -->
  <circle cx="216" cy="296" r="14" fill="url(#theme)"/>
  <circle cx="296" cy="296" r="14" fill="url(#theme)"/>
  <!-- sorted file lines -->
  <line x1="168" y1="116" x2="232" y2="116" stroke="#12c2e9" stroke-width="12" stroke-linecap="round"/>
  <line x1="256" y1="116" x2="296" y2="116" stroke="#c471ed" stroke-width="12" stroke-linecap="round"/>
  <line x1="320" y1="116" x2="344" y2="116" stroke="#f64f59" stroke-width="12" stroke-linecap="round"/>
  <text x="256" y="448" text-anchor="middle" font-family="Segoe UI, Helvetica, Arial, sans-serif" font-size="40" font-weight="700" fill="#ffffff" letter-spacing="1">DirectoryDaemon</text>
</svg>
